<svg width="48" height="48" viewBox="0 0 48 48" fill="none" xmlns="http://www.w3.org/2000/svg">
<circle cx="24" cy="24" r="23.5" stroke="#CF215B"/>
<path d="M34.8 15.225H13.2C12.7823 15.225 12.3817 15.3909 12.0863 15.6863C11.7909 15.9817 11.625 16.3823 11.625 16.8V31.2C11.625 31.6177 11.7909 32.0183 12.0863 32.3137C12.3817 32.609 12.7823 32.775 13.2 32.775H34.8C35.2177 32.775 35.6183 32.609 35.9137 32.3137C36.2091 32.0183 36.375 31.6177 36.375 31.2V16.8C36.375 16.3823 36.2091 15.9817 35.9137 15.6863C35.6183 15.3909 35.2177 15.225 34.8 15.225ZM13.2 16.575H34.8C34.8597 16.575 34.9169 16.5987 34.9591 16.6409C35.0013 16.6831 35.025 16.7403 35.025 16.8V19.725H12.975V16.8C12.975 16.7403 12.9987 16.6831 13.0409 16.6409C13.0831 16.5987 13.1403 16.575 13.2 16.575ZM34.8 31.425H13.2C13.1403 31.425 13.0831 31.4013 13.0409 31.3591C12.9987 31.3169 12.975 31.2596 12.975 31.2V21.075H35.025V31.2C35.025 31.2596 35.0013 31.3169 34.9591 31.3591C34.9169 31.4013 34.8597 31.425 34.8 31.425ZM32.775 28.5C32.775 28.679 32.7039 28.8507 32.5773 28.9773C32.4507 29.1039 32.279 29.175 32.1 29.175H28.5C28.321 29.175 28.1493 29.1039 28.0227 28.9773C27.8961 28.8507 27.825 28.679 27.825 28.5C27.825 28.321 27.8961 28.1493 28.0227 28.0227C28.1493 27.8961 28.321 27.825 28.5 27.825H32.1C32.279 27.825 32.4507 27.8961 32.5773 28.0227C32.7039 28.1493 32.775 28.321 32.775 28.5ZM25.575 28.5C25.575 28.679 25.5039 28.8507 25.3773 28.9773C25.2507 29.1039 25.079 29.175 24.9 29.175H23.1C22.921 29.175 22.7493 29.1039 22.6227 28.9773C22.4961 28.8507 22.425 28.679 22.425 28.5C22.425 28.321 22.4961 28.1493 22.6227 28.0227C22.7493 27.8961 22.921 27.825 23.1 27.825H24.9C25.079 27.825 25.2507 27.8961 25.3773 28.0227C25.5039 28.1493 25.575 28.321 25.575 28.5Z" fill="#CF215B"/>
</svg>
