<svg width="48" height="48" viewBox="0 0 48 48" fill="none" xmlns="http://www.w3.org/2000/svg">
<circle cx="24" cy="24" r="23.5" stroke="#CF215B"/>
<path d="M29.1648 30.2403L25.9079 33.4987L25.9076 33.4989C25.3955 34.012 24.7016 34.2999 23.9784 34.2999C23.2553 34.2999 22.5614 34.012 22.0492 33.4989L22.049 33.4987L18.8273 30.2757C19.2635 30.2076 19.6154 30.0997 19.9063 29.9671C20.4069 29.739 20.6928 29.4518 20.8817 29.2622C20.8869 29.2569 20.892 29.2517 20.8971 29.2466L24.1292 26.0045L27.3505 29.2358C27.9216 29.8088 28.5246 30.1031 29.1648 30.2403ZM18.856 17.7278L22.0813 14.5012L22.0815 14.501C22.5937 13.9879 23.2876 13.7 24.0107 13.7C24.7339 13.7 25.4278 13.9879 25.9399 14.501L25.9402 14.5012L29.193 17.7554C28.5348 17.8906 27.9022 18.1877 27.3254 18.7892L24.1292 21.9954L20.8971 18.7533C20.8894 18.7455 20.8815 18.7375 20.8733 18.7292C20.7009 18.5558 20.4221 18.275 19.9352 18.0471C19.6454 17.9114 19.2931 17.799 18.856 17.7278Z" stroke="#CF215B"/>
<path d="M33.4896 22.1843L33.4911 22.1857C34.0096 22.6727 34.2966 23.3269 34.2999 24.0034C34.3033 24.6795 34.0231 25.3356 33.5102 25.8268C33.5099 25.8271 33.5096 25.8274 33.5093 25.8277L31.2261 27.9898H30.0647C29.5954 27.9898 29.1574 27.8126 28.8419 27.5152L25.5915 24.4507C25.3727 24.2444 25.1177 24.0959 24.8477 24.0032C25.1137 23.9103 25.3648 23.763 25.5807 23.5595L28.8203 20.5052L28.8204 20.5053L28.8297 20.4961C29.1273 20.2003 29.5799 20.0204 30.0431 20.0204H31.2045L33.4896 22.1843ZM22.6984 23.5657C22.9147 23.7623 23.1689 23.9104 23.443 24.0044C23.1742 24.0971 22.9204 24.2453 22.7025 24.4507L19.4438 27.523C19.1139 27.825 18.6736 28 18.2185 28H16.8195L14.4912 25.7953L14.4906 25.7948C13.9805 25.3133 13.7 24.6671 13.7 24C13.7 23.3329 13.9805 22.6867 14.4906 22.2052L14.4912 22.2047L16.8195 20H18.2077C18.6768 20 19.1147 20.1771 19.4302 20.4743C19.4303 20.4744 19.4304 20.4746 19.4305 20.4747L22.6911 23.5589L22.6911 23.559L22.6984 23.5657Z" stroke="#CF215B"/>
</svg>
