<svg width="48" height="48" viewBox="0 0 48 48" fill="none" xmlns="http://www.w3.org/2000/svg">
<circle cx="24" cy="24" r="23.5" stroke="#CF215B"/>
<path d="M35.1138 21.1335C35.4696 21.0611 35.7895 20.8681 36.0193 20.587C36.2491 20.306 36.3747 19.9542 36.375 19.5911V16.8C36.375 16.3823 36.209 15.9817 35.9137 15.6863C35.6183 15.3909 35.2177 15.225 34.8 15.225H13.2C12.7823 15.225 12.3816 15.3909 12.0863 15.6863C11.7909 15.9817 11.625 16.3823 11.625 16.8V19.5911C11.6252 19.9542 11.7509 20.306 11.9807 20.587C12.2105 20.8681 12.5303 21.0611 12.8861 21.1335C13.5498 21.2655 14.1471 21.6236 14.5764 22.1467C15.0056 22.6698 15.2402 23.3256 15.2402 24.0022C15.2402 24.6789 15.0056 25.3346 14.5764 25.8577C14.1471 26.3808 13.5498 26.7389 12.8861 26.871C12.5311 26.9432 12.2118 27.1355 11.9821 27.4157C11.7524 27.6958 11.6262 28.0466 11.625 28.4089V31.2C11.625 31.6177 11.7909 32.0183 12.0863 32.3137C12.3816 32.609 12.7823 32.775 13.2 32.775H34.8C35.2177 32.775 35.6183 32.609 35.9137 32.3137C36.209 32.0183 36.375 31.6177 36.375 31.2V28.4089C36.3747 28.0458 36.2491 27.694 36.0193 27.4129C35.7895 27.1319 35.4696 26.9388 35.1138 26.8665C34.4502 26.7344 33.8528 26.3763 33.4236 25.8532C32.9943 25.3301 32.7597 24.6744 32.7597 23.9977C32.7597 23.3211 32.9943 22.6653 33.4236 22.1422C33.8528 21.6191 34.4502 21.261 35.1138 21.129V21.1335ZM12.975 31.2V28.4089C12.9752 28.3573 12.993 28.3074 13.0256 28.2675C13.0581 28.2276 13.1034 28.2 13.1538 28.1895C14.1202 27.9932 14.9891 27.4689 15.6131 26.7054C16.2372 25.9419 16.5781 24.9861 16.5781 24C16.5781 23.0139 16.2372 22.0581 15.6131 21.2945C14.9891 20.531 14.1202 20.0067 13.1538 19.8105C13.1025 19.7997 13.0565 19.7714 13.0238 19.7303C12.9911 19.6892 12.9739 19.638 12.975 19.5855V16.8C12.975 16.7403 12.9987 16.6831 13.0409 16.6409C13.0831 16.5987 13.1403 16.575 13.2 16.575H19.725V31.425H13.2C13.1403 31.425 13.0831 31.4013 13.0409 31.3591C12.9987 31.3169 12.975 31.2596 12.975 31.2ZM34.8461 28.1895C34.8965 28.2 34.9418 28.2276 34.9743 28.2675C35.0069 28.3074 35.0248 28.3573 35.025 28.4089V31.2C35.025 31.2596 35.0013 31.3169 34.9591 31.3591C34.9169 31.4013 34.8596 31.425 34.8 31.425H21.075V16.575H34.8C34.8596 16.575 34.9169 16.5987 34.9591 16.6409C35.0013 16.6831 35.025 16.7403 35.025 16.8V19.5911C35.0261 19.6436 35.0088 19.6948 34.9761 19.7359C34.9435 19.777 34.8975 19.8054 34.8461 19.8161C33.8797 20.0123 33.0109 20.5366 32.3868 21.3002C31.7627 22.0637 31.4218 23.0195 31.4218 24.0056C31.4218 24.9917 31.7627 25.9475 32.3868 26.711C33.0109 27.4746 33.8797 27.9989 34.8461 28.1951V28.1895Z" fill="#CF215B"/>
</svg>
