<svg width="48" height="48" viewBox="0 0 48 48" fill="none" xmlns="http://www.w3.org/2000/svg">
<circle cx="24" cy="24" r="23.5" stroke="#CF215B"/>
<path d="M37.2266 22.8503L35.6516 18.9128C35.5356 18.6198 35.334 18.3687 35.0731 18.1921C34.8122 18.0155 34.5042 17.9216 34.1891 17.9228H30.075V16.8C30.075 16.621 30.0039 16.4493 29.8773 16.3227C29.7507 16.1961 29.579 16.125 29.4 16.125H12.3C11.8823 16.125 11.4817 16.2909 11.1863 16.5863C10.8909 16.8817 10.725 17.2823 10.725 17.7V30.3C10.725 30.7177 10.8909 31.1183 11.1863 31.4137C11.4817 31.7091 11.8823 31.875 12.3 31.875H14.3925C14.5474 32.6379 14.9613 33.3239 15.5641 33.8166C16.1669 34.3092 16.9215 34.5784 17.7 34.5784C18.4785 34.5784 19.2331 34.3092 19.8359 33.8166C20.4387 33.3239 20.8526 32.6379 21.0075 31.875H26.9925C27.1474 32.6379 27.5613 33.3239 28.1641 33.8166C28.7669 34.3092 29.5215 34.5784 30.3 34.5784C31.0785 34.5784 31.8331 34.3092 32.4359 33.8166C33.0387 33.3239 33.4526 32.6379 33.6075 31.875H35.7C36.1177 31.875 36.5183 31.7091 36.8137 31.4137C37.1091 31.1183 37.275 30.7177 37.275 30.3V23.1C37.2749 23.0144 37.2584 22.9297 37.2266 22.8503ZM30.075 19.275H34.1903C34.2353 19.275 34.2794 19.2884 34.3167 19.3137C34.354 19.339 34.3828 19.3749 34.3995 19.4168L35.6033 22.425H30.075V19.275ZM12.075 17.7C12.075 17.6403 12.0987 17.5831 12.1409 17.5409C12.1831 17.4987 12.2403 17.475 12.3 17.475H28.725V25.125H12.075V17.7ZM17.7 33.225C17.2995 33.225 16.908 33.1062 16.575 32.8837C16.242 32.6612 15.9824 32.345 15.8291 31.9749C15.6759 31.6049 15.6358 31.1978 15.7139 30.8049C15.7921 30.4121 15.9849 30.0513 16.2681 29.7681C16.5513 29.4849 16.9121 29.292 17.3049 29.2139C17.6978 29.1358 18.1049 29.1759 18.4749 29.3291C18.845 29.4824 19.1612 29.742 19.3837 30.075C19.6062 30.408 19.725 30.7995 19.725 31.2C19.725 31.7371 19.5117 32.2521 19.1319 32.6319C18.7521 33.0117 18.2371 33.225 17.7 33.225ZM26.9925 30.525H21.0075C20.8526 29.7621 20.4387 29.0761 19.8359 28.5834C19.2331 28.0908 18.4785 27.8216 17.7 27.8216C16.9215 27.8216 16.1669 28.0908 15.5641 28.5834C14.9613 29.0761 14.5474 29.7621 14.3925 30.525H12.3C12.2403 30.525 12.1831 30.5013 12.1409 30.4591C12.0987 30.4169 12.075 30.3597 12.075 30.3V26.475H28.725V28.2165C28.284 28.4499 27.9 28.7778 27.6005 29.1769C27.301 29.576 27.0934 30.0363 26.9925 30.525ZM30.3 33.225C29.8995 33.225 29.508 33.1062 29.175 32.8837C28.842 32.6612 28.5824 32.345 28.4291 31.9749C28.2759 31.6049 28.2358 31.1978 28.3139 30.8049C28.3921 30.4121 28.5849 30.0513 28.8681 29.7681C29.1513 29.4849 29.5121 29.292 29.9049 29.2139C30.2978 29.1358 30.7049 29.1759 31.0749 29.3291C31.445 29.4824 31.7612 29.742 31.9837 30.075C32.2062 30.408 32.325 30.7995 32.325 31.2C32.325 31.7371 32.1117 32.2521 31.7319 32.6319C31.3521 33.0117 30.8371 33.225 30.3 33.225ZM35.925 30.3C35.925 30.3597 35.9013 30.4169 35.8591 30.4591C35.8169 30.5013 35.7597 30.525 35.7 30.525H33.6075C33.4509 29.7632 33.0364 29.0786 32.4339 28.5868C31.8314 28.0949 31.0778 27.8259 30.3 27.825C30.2246 27.825 30.1493 27.825 30.075 27.8329V23.775H35.925V30.3Z" fill="#CF215B"/>
</svg>
