<svg width="58" height="48" viewBox="0 0 58 48" fill="none" xmlns="http://www.w3.org/2000/svg">
<path d="M50.3075 15.0893H46.977V13.3557C46.977 12.6903 46.7148 12.0522 46.2479 11.5817C45.7811 11.1112 45.148 10.8469 44.4878 10.8469C43.8276 10.8469 43.1945 11.1112 42.7277 11.5817C42.2608 12.0522 41.9986 12.6903 41.9986 13.3557V15.0893H38.6681V13.3557C38.6681 11.8 39.2813 10.3079 40.3728 9.20785C41.4643 8.10777 42.9447 7.48975 44.4883 7.48975C46.0319 7.48975 47.5123 8.10777 48.6038 9.20785C49.6953 10.3079 50.3085 11.8 50.3085 13.3557L50.3075 15.0893Z" fill="#4F4F4F"/>
<path d="M51.6745 15.0875H37.301C37.1532 15.0855 37.0064 15.1134 36.8695 15.1696C36.7325 15.2257 36.6081 15.3089 36.5035 15.4143C36.399 15.5196 36.3164 15.645 36.2607 15.7831C36.205 15.9211 36.1774 16.069 36.1793 16.218V26.9241C36.1774 27.0732 36.205 27.221 36.2607 27.3591C36.3164 27.4971 36.399 27.6225 36.5035 27.7279C36.6081 27.8333 36.7325 27.9165 36.8695 27.9726C37.0064 28.0287 37.1532 28.0566 37.301 28.0547H51.6745C51.8223 28.0566 51.969 28.0287 52.106 27.9726C52.243 27.9165 52.3674 27.8333 52.4719 27.7279C52.5765 27.6225 52.659 27.4971 52.7147 27.3591C52.7704 27.221 52.7981 27.0732 52.7962 26.9241V16.218C52.7879 15.9208 52.6671 15.6381 52.4585 15.4278C52.2499 15.2176 51.9693 15.0958 51.6745 15.0875ZM45.1886 22.1189V23.5675C45.1886 23.7643 45.111 23.9531 44.9729 24.0923C44.8348 24.2315 44.6474 24.3097 44.4521 24.3097C44.2568 24.3097 44.0695 24.2315 43.9314 24.0923C43.7933 23.9531 43.7157 23.7643 43.7157 23.5675V22.1189C43.4866 21.9892 43.297 21.799 43.1673 21.5686C43.0376 21.3383 42.9727 21.0766 42.9798 20.8119C42.9896 20.4249 43.149 20.0571 43.4241 19.7869C43.6991 19.5166 44.068 19.3654 44.4521 19.3654C44.8362 19.3654 45.2051 19.5166 45.4802 19.7869C45.7552 20.0571 45.9147 20.4249 45.9245 20.8119C45.9387 21.0779 45.877 21.3424 45.7465 21.5741C45.6161 21.8057 45.4224 21.9948 45.1886 22.1189Z" fill="#4F4F4F"/>
<path d="M35.8292 13.4975H32.3582C32.0885 13.4975 31.8298 13.3895 31.6391 13.1973C31.4484 13.0051 31.3413 12.7444 31.3413 12.4726C31.3413 12.2008 31.4484 11.9401 31.6391 11.7479C31.8298 11.5557 32.0885 11.4478 32.3582 11.4478H35.8292C36.0989 11.4478 36.3575 11.5557 36.5482 11.7479C36.7389 11.9401 36.846 12.2008 36.846 12.4726C36.846 12.7444 36.7389 13.0051 36.5482 13.1973C36.3575 13.3895 36.0989 13.4975 35.8292 13.4975Z" fill="#4F4F4F"/>
<path d="M38.2833 7.98585C38.049 7.98942 37.8226 7.90072 37.6522 7.73861L34.9182 5.47754C34.7188 5.30122 34.5952 5.05364 34.5737 4.78717C34.5521 4.5207 34.6343 4.25623 34.8027 4.04969C34.9712 3.84315 35.2127 3.71074 35.4763 3.68046C35.7398 3.65018 36.0047 3.7244 36.215 3.88743L38.949 6.14849C39.154 6.3246 39.2832 6.57401 39.3094 6.84419C39.3356 7.11438 39.2567 7.38427 39.0895 7.59705C38.9871 7.7121 38.8631 7.80567 38.7248 7.87239C38.5865 7.9391 38.4364 7.97766 38.2833 7.98585Z" fill="#4F4F4F"/>
<path d="M44.4854 5.58285C44.2157 5.58259 43.9573 5.47454 43.7666 5.28239C43.576 5.09025 43.4688 4.82973 43.4685 4.558V1.02485C43.4685 0.753041 43.5756 0.492367 43.7663 0.300171C43.957 0.107975 44.2157 0 44.4854 0C44.755 0 45.0137 0.107975 45.2044 0.300171C45.3951 0.492367 45.5022 0.753041 45.5022 1.02485V4.558C45.5019 4.82973 45.3947 5.09025 45.2041 5.28239C45.0135 5.47454 44.755 5.58259 44.4854 5.58285Z" fill="#4F4F4F"/>
<path d="M50.6577 7.98546C50.5086 7.98413 50.3617 7.9485 50.2283 7.88129C50.095 7.81408 49.9786 7.71706 49.8881 7.59762C49.7215 7.38457 49.6431 7.11485 49.6693 6.84488C49.6954 6.57491 49.8242 6.32559 50.0285 6.14907L52.7626 3.88801C52.8655 3.79699 52.9855 3.72775 53.1155 3.68441C53.2455 3.64107 53.3829 3.62452 53.5193 3.63573C53.6558 3.64694 53.7887 3.68569 53.91 3.74967C54.0313 3.81365 54.1387 3.90157 54.2256 4.00818C54.3126 4.1148 54.3774 4.23795 54.4162 4.3703C54.455 4.50266 54.4669 4.64153 54.4514 4.77865C54.4359 4.91577 54.3932 5.04835 54.3259 5.16851C54.2585 5.28867 54.1679 5.39396 54.0594 5.47812L51.3253 7.73918C51.141 7.90233 50.9029 7.99017 50.6577 7.98546Z" fill="#4F4F4F"/>
<path d="M56.5827 13.4975H53.0772C52.9436 13.4975 52.8114 13.4709 52.688 13.4194C52.5647 13.3679 52.4526 13.2924 52.3581 13.1973C52.2637 13.1021 52.1888 12.9891 52.1377 12.8648C52.0866 12.7405 52.0603 12.6072 52.0603 12.4726C52.0603 12.338 52.0866 12.2047 52.1377 12.0804C52.1888 11.9561 52.2637 11.8431 52.3581 11.7479C52.4526 11.6528 52.5647 11.5773 52.688 11.5258C52.8114 11.4743 52.9436 11.4478 53.0772 11.4478H56.5827C56.8524 11.4478 57.1111 11.5557 57.3018 11.7479C57.4925 11.9401 57.5996 12.2008 57.5996 12.4726C57.5996 12.7444 57.4925 13.0051 57.3018 13.1973C57.1111 13.3895 56.8524 13.4975 56.5827 13.4975Z" fill="#4F4F4F"/>
<path d="M0 30.8277V19.4147H2.73404V28.425H7.11698V30.8277H0ZM16.1618 26.9057V27.5418H10.3772C10.4101 27.7535 10.4816 27.9573 10.5879 28.1429C10.6896 28.3277 10.8338 28.4853 11.0083 28.6025C11.1873 28.7426 11.3891 28.8502 11.6048 28.9205C11.82 28.99 12.0445 29.0256 12.2705 29.0262C12.6086 29.0355 12.9439 28.9634 13.2488 28.8159C13.5537 28.6683 13.8192 28.4496 14.0233 28.1778L15.8463 29.3413C15.4681 29.8823 14.9618 30.3195 14.3734 30.6134C13.7024 30.922 12.9725 31.0788 12.2349 31.073C11.6625 31.0709 11.0943 30.9753 10.5523 30.7899C10.0375 30.6116 9.56093 30.3365 9.14779 29.9793C8.72269 29.5779 8.38721 29.0899 8.16363 28.5478C7.94004 28.0056 7.83347 27.4218 7.851 26.8349C7.83461 26.227 7.9543 25.6232 8.20117 25.0684C8.40035 24.5571 8.71181 24.098 9.1122 23.7255C9.50451 23.3501 9.97006 23.0612 10.4792 22.8771C11.0146 22.6633 11.5859 22.5553 12.1618 22.5591C12.7115 22.558 13.2572 22.6538 13.7741 22.8422C14.2449 23.0408 14.6734 23.3288 15.0363 23.6906C15.3977 24.0879 15.6724 24.5573 15.8424 25.0684C16.0591 25.6561 16.1673 26.2788 16.1618 26.9057ZM13.7433 25.9167C13.7445 25.5177 13.6085 25.1305 13.3585 24.8211C13.2081 24.6575 13.0224 24.531 12.8157 24.4513C12.609 24.3716 12.3869 24.3409 12.1666 24.3615C11.9288 24.3593 11.6921 24.395 11.4653 24.4672C11.2607 24.5379 11.0706 24.6457 10.9044 24.7852C10.7471 24.9248 10.6166 25.0925 10.5196 25.2797C10.4247 25.4674 10.3653 25.6713 10.3445 25.8809H13.7453L13.7433 25.9167ZM20.3697 24.7862V27.8598C20.3451 28.1582 20.4192 28.4565 20.5804 28.7082C20.6787 28.8114 20.7992 28.8906 20.9326 28.9397C21.066 28.9888 21.2088 29.0064 21.35 28.9913C21.491 28.9972 21.6322 28.9855 21.7704 28.9564C21.8898 28.9311 22.007 28.8957 22.1205 28.8507L22.1552 30.7899C21.9247 30.8612 21.6906 30.9202 21.4539 30.9663C21.175 31.0074 20.8939 31.0311 20.6121 31.0371C20.1588 31.0501 19.707 30.9781 19.2797 30.8248C18.9474 30.7088 18.647 30.5151 18.4033 30.2595C18.1767 29.9973 18.0198 29.6813 17.9473 29.3413C17.862 28.9592 17.8149 28.5694 17.8069 28.1778V24.7843H16.512V22.8073H17.7742V20.6917H20.3716V22.8121H22.2312V24.791L20.3697 24.7862ZM24.6468 19.2034C24.4694 19.1958 24.2923 19.2237 24.1257 19.2854C23.959 19.3471 23.8062 19.4414 23.6758 19.5629C23.5455 19.6843 23.4402 19.8306 23.3661 19.9932C23.2921 20.1558 23.2506 20.3315 23.2442 20.5104C23.2356 20.6826 23.2636 20.8547 23.3261 21.0153C23.3887 21.1758 23.4844 21.321 23.607 21.4414C23.7296 21.5617 23.8762 21.6544 24.0371 21.7132C24.1979 21.772 24.3694 21.7956 24.54 21.7824C24.6006 21.7918 24.6626 21.7794 24.7151 21.7475C24.6383 22.0209 24.4851 22.2661 24.2737 22.4541C24.0624 22.642 23.8018 22.7646 23.5232 22.8073H23.4183V24.0435H23.5588C24.1869 23.9708 24.776 23.6992 25.2413 23.2678C25.5488 22.9519 25.7884 22.5755 25.9451 22.1622C26.1019 21.7488 26.1724 21.3073 26.1523 20.8652C26.1681 20.655 26.141 20.4437 26.0728 20.2443C26.0045 20.045 25.8965 19.8619 25.7554 19.7062C25.6142 19.5506 25.443 19.4256 25.2522 19.3392C25.0614 19.2527 24.855 19.2065 24.6458 19.2034H24.6468ZM30.7075 25.175C30.4922 24.9593 30.2437 24.7802 29.9715 24.6446C29.6882 24.5039 29.3764 24.4312 29.0605 24.4323C28.8305 24.4245 28.6021 24.4731 28.3948 24.5739C28.2972 24.6122 28.214 24.6806 28.1574 24.7695C28.1007 24.8583 28.0733 24.9629 28.0793 25.0684C28.0782 25.1775 28.1115 25.2842 28.1745 25.3731C28.2374 25.4619 28.3267 25.5284 28.4294 25.5628C28.7918 25.7066 29.1676 25.8131 29.5511 25.8809C29.8638 25.9427 30.1692 26.0376 30.4622 26.164C30.7462 26.2882 31.0164 26.4422 31.2683 26.6236C31.5208 26.8073 31.7254 27.0498 31.8648 27.3304C32.012 27.6385 32.0842 27.9775 32.0755 28.3194C32.0882 28.7645 31.9791 29.2047 31.7599 29.5914C31.5672 29.9388 31.2897 30.2308 30.9538 30.4398C30.6177 30.6498 30.2508 30.8049 29.8667 30.8994C29.4654 30.9987 29.0533 31.0463 28.6401 31.041C27.9957 31.0446 27.3553 30.9371 26.7469 30.7229C26.1704 30.5402 25.6436 30.2256 25.2076 29.8038L26.6805 28.2525C26.936 28.5115 27.2321 28.7264 27.5569 28.8885C27.8943 29.0576 28.2672 29.1424 28.644 29.1357C28.8625 29.1398 29.0788 29.0913 29.275 28.9942C29.3745 28.9481 29.4579 28.8728 29.5142 28.7782C29.5705 28.6835 29.5971 28.574 29.5906 28.4638C29.5859 28.3426 29.5473 28.2252 29.4792 28.1252C29.4111 28.0252 29.3163 27.9466 29.2058 27.8986C28.8209 27.7419 28.4216 27.6237 28.0138 27.5456C27.7288 27.4796 27.4477 27.397 27.1721 27.2984C26.9048 27.2 26.656 27.0568 26.4361 26.8747C26.2234 26.6835 26.0454 26.4565 25.9099 26.2037C25.7645 25.9069 25.6907 25.5797 25.6944 25.2487C25.6818 24.8149 25.7912 24.3863 26.01 24.0125C26.2006 23.6853 26.4641 23.4071 26.7796 23.2C27.0953 22.976 27.4531 22.8196 27.8311 22.7404C28.2079 22.6414 28.5961 22.5938 28.9855 22.5988C29.5805 22.6038 30.1715 22.6992 30.7383 22.8819C31.2785 23.0431 31.7718 23.3342 32.1755 23.7303L30.7075 25.175ZM0 44.0421V32.6301H7.60857V34.962H2.62918V37.1173H7.3267V39.3076H2.62918V41.6753H7.88755V44.0431L0 44.0421ZM14.7948 44.0421V39.6615C14.7888 39.4479 14.7653 39.2352 14.7246 39.0255C14.693 38.8408 14.634 38.662 14.5495 38.4951C14.4704 38.3449 14.3484 38.2219 14.1993 38.1422C14.02 38.0335 13.8115 37.984 13.6029 38.0006C13.3836 37.9888 13.1654 38.0377 12.9718 38.1422C12.7966 38.241 12.6419 38.3726 12.5158 38.53C12.4014 38.7072 12.3072 38.8968 12.2349 39.0953C12.166 39.3002 12.1306 39.515 12.13 39.7313V44.078H9.50085V36.0566H12.0252V37.1522H12.0598C12.1568 36.965 12.2873 36.7973 12.4446 36.6578C12.5948 36.4874 12.7728 36.344 12.9708 36.234C13.1833 36.1186 13.4062 36.0238 13.6365 35.9509C13.8868 35.879 14.1459 35.8434 14.4062 35.8452C14.8767 35.8396 15.343 35.9361 15.7732 36.1284C16.1266 36.3061 16.4375 36.5592 16.6842 36.8701C16.9171 37.1863 17.084 37.5468 17.1748 37.9298C17.2754 38.322 17.3226 38.7262 17.3153 39.1312V44.076H14.7948V44.0421ZM24.1898 38.6008C24.0303 38.4018 23.8258 38.2442 23.5934 38.1412C23.3506 38.0327 23.0892 37.9728 22.8238 37.9648C22.5681 37.9646 22.316 38.025 22.0878 38.1412C21.8644 38.2426 21.671 38.401 21.527 38.6008C21.3785 38.7997 21.2496 39.0127 21.1422 39.2368C20.9561 39.7369 20.9561 40.2881 21.1422 40.7882C21.2145 41.0298 21.347 41.2488 21.527 41.4242C21.6961 41.623 21.9058 41.7827 22.1417 41.8924C22.3776 42.0022 22.6342 42.0594 22.894 42.0603C23.1692 42.065 23.4428 42.0169 23.7002 41.9187C23.9444 41.8194 24.161 41.6617 24.3313 41.4591L25.7685 43.2616C25.4055 43.5973 24.975 43.8502 24.5063 44.0033C23.9756 44.1859 23.4192 44.2815 22.8584 44.2864C22.2629 44.2871 21.6711 44.1916 21.1056 44.0033C20.569 43.8339 20.0775 43.5438 19.6684 43.1549C19.2433 42.7535 18.9078 42.2655 18.6842 41.7234C18.4606 41.1813 18.3541 40.5974 18.3716 40.0106C18.3552 39.4027 18.4749 38.7989 18.7218 38.244C18.9461 37.7377 19.2679 37.2813 19.6684 36.9011C20.0812 36.5172 20.5715 36.2278 21.1056 36.0527C21.6676 35.8503 22.2618 35.7543 22.8584 35.7696C23.1402 35.7756 23.4213 35.7993 23.7002 35.8404C23.9811 35.9112 24.261 35.982 24.5063 36.0527C24.7582 36.1559 25.004 36.2737 25.2423 36.4057C25.4508 36.53 25.6398 36.6849 25.8031 36.8652L24.1898 38.6008ZM31.8321 38.213C31.7193 38.1726 31.6014 38.1488 31.4819 38.1422H31.1664C30.8652 38.1389 30.5667 38.199 30.29 38.3186C30.0752 38.4337 29.8847 38.5898 29.7291 38.7782C29.5901 38.9586 29.4833 39.162 29.4136 39.3794C29.3481 39.5607 29.3126 39.7517 29.3087 39.9446V44.0431H26.6786V36.0217H29.2029V37.1852H29.2375C29.4316 36.779 29.7353 36.4363 30.1139 36.1962C30.4992 35.9417 30.9501 35.8069 31.4107 35.8084H31.7263C31.8311 35.8084 31.9013 35.8433 31.9716 35.8433L31.8321 38.213ZM38.0024 45.2444C37.8274 45.6681 37.6523 46.02 37.4762 46.3749C37.2815 46.6883 37.0456 46.9737 36.7749 47.2233C36.4924 47.4542 36.172 47.6337 35.8283 47.7536C35.4065 47.8739 34.9699 47.9333 34.5315 47.9301C34.2745 47.9353 34.0174 47.9236 33.7619 47.8952C33.5356 47.8723 33.3124 47.8248 33.0962 47.7536L33.3771 45.5236L33.7975 45.6293C33.9356 45.6584 34.0768 45.6701 34.2179 45.6642C34.3753 45.678 34.5339 45.6601 34.6843 45.6115C34.8348 45.5629 34.9742 45.4845 35.0943 45.3811C35.3087 45.151 35.4651 44.8724 35.5503 44.5686L35.7956 43.8976L32.4651 36.0178H35.3752L37.1636 41.177H37.1982L38.7759 36.0178H41.5455L38.0024 45.2444ZM51.1137 40.0154C51.1207 40.567 51.0378 41.1159 50.8684 41.6404C50.7011 42.1379 50.4523 42.6036 50.1325 43.0182C49.8002 43.411 49.3954 43.735 48.9405 43.9723C48.4398 44.221 47.8862 44.3422 47.3282 44.3252C46.8472 44.32 46.3715 44.224 45.9256 44.0421C45.524 43.8621 45.1742 43.5826 44.9087 43.2296H44.8741V47.9999H42.2411V36.1274H44.7298V37.1164H44.7644C45.0473 36.7715 45.3923 36.4837 45.7813 36.268C46.2546 36.0159 46.7856 35.8941 47.3205 35.9151C47.8667 35.9056 48.4073 36.0266 48.8982 36.268C49.3586 36.4804 49.7659 36.7941 50.0901 37.1862C50.4097 37.5882 50.6586 38.0424 50.8261 38.5291C51.0224 38.9989 51.1203 39.5046 51.1137 40.0144V40.0154ZM48.5548 40.0154C48.5543 39.7645 48.519 39.5148 48.4499 39.2737C48.376 39.0404 48.257 38.8243 48.0997 38.6376C47.9402 38.4386 47.7357 38.281 47.5033 38.1781C47.2502 38.0617 46.9753 38.0015 46.6971 38.0015C46.4189 38.0015 46.144 38.0617 45.891 38.1781C45.6641 38.2903 45.4614 38.4465 45.2945 38.6376C45.1259 38.8352 44.9954 39.0628 44.9097 39.3086C44.7226 39.7854 44.7226 40.3162 44.9097 40.793C45.0034 41.0351 45.1332 41.2613 45.2945 41.464C45.4614 41.6552 45.6641 41.8113 45.891 41.9236C46.1441 42.0397 46.419 42.0999 46.6971 42.1C46.9757 42.1039 47.2514 42.0435 47.5033 41.9236C47.7301 41.8113 47.9328 41.6552 48.0997 41.464C48.2573 41.2645 48.3761 41.0369 48.4499 40.793C48.517 40.5389 48.5522 40.2774 48.5548 40.0144V40.0154ZM55.2889 38.0016V41.0752C55.2643 41.3736 55.3384 41.6719 55.4995 41.9236C55.5979 42.0268 55.7184 42.106 55.8518 42.1551C55.9852 42.2042 56.1279 42.2218 56.2692 42.2067C56.4102 42.2126 56.5514 42.2009 56.6896 42.1718C56.809 42.1465 56.9261 42.1111 57.0397 42.0661L57.0744 44.0052C56.5779 44.1708 56.0581 44.2543 55.5351 44.2525C55.0818 44.2655 54.63 44.1935 54.2028 44.0401C53.8692 43.9253 53.5675 43.7322 53.3225 43.4768C53.0959 43.2146 52.939 42.8987 52.8665 42.5586C52.7812 42.1765 52.7341 41.7867 52.7261 41.3951V38.0016H51.4649V36.0217H52.727V33.9022H55.286V36.0227H57.1436V38.0016H55.2889Z" fill="#4F4F4F"/>
</svg>
