<svg width="24" height="24" viewBox="0 0 24 24" fill="none" xmlns="http://www.w3.org/2000/svg">
<path d="M4.88201 12.9561L10.502 19.3071C10.6897 19.5193 10.9203 19.6891 11.1785 19.8055C11.4368 19.9218 11.7168 19.982 12 19.982C12.2833 19.982 12.5633 19.9218 12.8215 19.8055C13.0798 19.6891 13.3103 19.5193 13.498 19.3071L19.118 12.9561C20.791 11.0651 21.66 8.68711 20.403 6.42011C18.951 3.80011 16.29 3.26411 13.977 5.02411C13.3385 5.51971 12.7473 6.07341 12.211 6.67811C12.1844 6.70767 12.1518 6.73131 12.1155 6.74748C12.0791 6.76366 12.0398 6.77202 12 6.77202C11.9602 6.77202 11.9209 6.76366 11.8845 6.74748C11.8482 6.73131 11.8156 6.70767 11.789 6.67811C11.2527 6.07341 10.6615 5.51971 10.023 5.02411C7.71001 3.26411 5.04901 3.80011 3.59701 6.42011C2.34001 8.68711 3.20901 11.0651 4.88201 12.9561Z" stroke="#4F4F4F" stroke-linecap="round" stroke-linejoin="round"/>
</svg>
