<svg width="34" height="24" viewBox="0 0 34 24" fill="none" xmlns="http://www.w3.org/2000/svg">
<rect x="0.5" y="0.5" width="33" height="23" rx="3.5" fill="white" stroke="#D9D9D9"/>
<path d="M7.16968 7.5H7.32527V17.3252H7.16968V7.5Z" fill="#151515" stroke="#151515"/>
<mask id="path-3-inside-1_46_678" fill="white">
<path fill-rule="evenodd" clip-rule="evenodd" d="M8.19067 7H8.54755V17.8252H8.19067V7Z"/>
</mask>
<path fill-rule="evenodd" clip-rule="evenodd" d="M8.19067 7H8.54755V17.8252H8.19067V7Z" fill="#151515"/>
<path d="M8.19067 7V6H7.19067V7H8.19067ZM8.54755 7H9.54755V6H8.54755V7ZM8.54755 17.8252V18.8252H9.54755V17.8252H8.54755ZM8.19067 17.8252H7.19067V18.8252H8.19067V17.8252ZM8.19067 8H8.54755V6H8.19067V8ZM7.54755 7V17.8252H9.54755V7H7.54755ZM8.54755 16.8252H8.19067V18.8252H8.54755V16.8252ZM9.19067 17.8252V7H7.19067V17.8252H9.19067Z" fill="#151515" mask="url(#path-3-inside-1_46_678)"/>
<mask id="path-5-inside-2_46_678" fill="white">
<path fill-rule="evenodd" clip-rule="evenodd" d="M8.85974 7H9.50127V17.8252H8.85974V7Z"/>
</mask>
<path fill-rule="evenodd" clip-rule="evenodd" d="M8.85974 7H9.50127V17.8252H8.85974V7Z" fill="#151515"/>
<path d="M8.85974 7V6H7.85974V7H8.85974ZM9.50127 7H10.5013V6H9.50127V7ZM9.50127 17.8252V18.8252H10.5013V17.8252H9.50127ZM8.85974 17.8252H7.85974V18.8252H8.85974V17.8252ZM8.85974 8H9.50127V6H8.85974V8ZM8.50127 7V17.8252H10.5013V7H8.50127ZM9.50127 16.8252H8.85974V18.8252H9.50127V16.8252ZM9.85974 17.8252V7H7.85974V17.8252H9.85974Z" fill="#151515" mask="url(#path-5-inside-2_46_678)"/>
<mask id="path-7-inside-3_46_678" fill="white">
<path fill-rule="evenodd" clip-rule="evenodd" d="M10.1195 7H10.4785V17.8252H10.1195V7Z"/>
</mask>
<path fill-rule="evenodd" clip-rule="evenodd" d="M10.1195 7H10.4785V17.8252H10.1195V7Z" fill="#151515"/>
<path d="M10.1195 7V6H9.11951V7H10.1195ZM10.4785 7H11.4785V6H10.4785V7ZM10.4785 17.8252V18.8252H11.4785V17.8252H10.4785ZM10.1195 17.8252H9.11951V18.8252H10.1195V17.8252ZM10.1195 8H10.4785V6H10.1195V8ZM9.47851 7V17.8252H11.4785V7H9.47851ZM10.4785 16.8252H10.1195V18.8252H10.4785V16.8252ZM11.1195 17.8252V7H9.11951V17.8252H11.1195Z" fill="#151515" mask="url(#path-7-inside-3_46_678)"/>
<mask id="path-9-inside-4_46_678" fill="white">
<path fill-rule="evenodd" clip-rule="evenodd" d="M10.6335 7H10.9097V17.8252H10.6335V7Z"/>
</mask>
<path fill-rule="evenodd" clip-rule="evenodd" d="M10.6335 7H10.9097V17.8252H10.6335V7Z" fill="#151515"/>
<path d="M10.6335 7V6H9.63354V7H10.6335ZM10.9097 7H11.9097V6H10.9097V7ZM10.9097 17.8252V18.8252H11.9097V17.8252H10.9097ZM10.6335 17.8252H9.63354V18.8252H10.6335V17.8252ZM10.6335 8H10.9097V6H10.6335V8ZM9.9097 7V17.8252H11.9097V7H9.9097ZM10.9097 16.8252H10.6335V18.8252H10.9097V16.8252ZM11.6335 17.8252V7H9.63354V17.8252H11.6335Z" fill="#151515" mask="url(#path-9-inside-4_46_678)"/>
<mask id="path-11-inside-5_46_678" fill="white">
<path fill-rule="evenodd" clip-rule="evenodd" d="M5.79028 7H6.14928V17.8252H5.79028V7Z"/>
</mask>
<path fill-rule="evenodd" clip-rule="evenodd" d="M5.79028 7H6.14928V17.8252H5.79028V7Z" fill="#151515"/>
<path d="M5.79028 7V6H4.79028V7H5.79028ZM6.14928 7H7.14928V6H6.14928V7ZM6.14928 17.8252V18.8252H7.14928V17.8252H6.14928ZM5.79028 17.8252H4.79028V18.8252H5.79028V17.8252ZM5.79028 8H6.14928V6H5.79028V8ZM5.14928 7V17.8252H7.14928V7H5.14928ZM6.14928 16.8252H5.79028V18.8252H6.14928V16.8252ZM6.79028 17.8252V7H4.79028V17.8252H6.79028Z" fill="#151515" mask="url(#path-11-inside-5_46_678)"/>
<mask id="path-13-inside-6_46_678" fill="white">
<path fill-rule="evenodd" clip-rule="evenodd" d="M5 7H5.64153V17.8252H5V7Z"/>
</mask>
<path fill-rule="evenodd" clip-rule="evenodd" d="M5 7H5.64153V17.8252H5V7Z" fill="#151515"/>
<path d="M5 7V6H4V7H5ZM5.64153 7H6.64153V6H5.64153V7ZM5.64153 17.8252V18.8252H6.64153V17.8252H5.64153ZM5 17.8252H4V18.8252H5V17.8252ZM5 8H5.64153V6H5V8ZM4.64153 7V17.8252H6.64153V7H4.64153ZM5.64153 16.8252H5V18.8252H5.64153V16.8252ZM6 17.8252V7H4V17.8252H6Z" fill="#151515" mask="url(#path-13-inside-6_46_678)"/>
<path d="M13.3236 7.5H13.4813V17.3252H13.3236V7.5Z" fill="#151515" stroke="#151515"/>
<mask id="path-16-inside-7_46_678" fill="white">
<path fill-rule="evenodd" clip-rule="evenodd" d="M14.3446 7H14.7036V17.8252H14.3446V7Z"/>
</mask>
<path fill-rule="evenodd" clip-rule="evenodd" d="M14.3446 7H14.7036V17.8252H14.3446V7Z" fill="#151515"/>
<path d="M14.3446 7V6H13.3446V7H14.3446ZM14.7036 7H15.7036V6H14.7036V7ZM14.7036 17.8252V18.8252H15.7036V17.8252H14.7036ZM14.3446 17.8252H13.3446V18.8252H14.3446V17.8252ZM14.3446 8H14.7036V6H14.3446V8ZM13.7036 7V17.8252H15.7036V7H13.7036ZM14.7036 16.8252H14.3446V18.8252H14.7036V16.8252ZM15.3446 17.8252V7H13.3446V17.8252H15.3446Z" fill="#151515" mask="url(#path-16-inside-7_46_678)"/>
<mask id="path-18-inside-8_46_678" fill="white">
<path fill-rule="evenodd" clip-rule="evenodd" d="M15.0159 7H15.6574V17.8252H15.0159V7Z"/>
</mask>
<path fill-rule="evenodd" clip-rule="evenodd" d="M15.0159 7H15.6574V17.8252H15.0159V7Z" fill="#151515"/>
<path d="M15.0159 7V6H14.0159V7H15.0159ZM15.6574 7H16.6574V6H15.6574V7ZM15.6574 17.8252V18.8252H16.6574V17.8252H15.6574ZM15.0159 17.8252H14.0159V18.8252H15.0159V17.8252ZM15.0159 8H15.6574V6H15.0159V8ZM14.6574 7V17.8252H16.6574V7H14.6574ZM15.6574 16.8252H15.0159V18.8252H15.6574V16.8252ZM16.0159 17.8252V7H14.0159V17.8252H16.0159Z" fill="#151515" mask="url(#path-18-inside-8_46_678)"/>
<mask id="path-20-inside-9_46_678" fill="white">
<path fill-rule="evenodd" clip-rule="evenodd" d="M16.2755 7H16.6324V17.8252H16.2755V7Z"/>
</mask>
<path fill-rule="evenodd" clip-rule="evenodd" d="M16.2755 7H16.6324V17.8252H16.2755V7Z" fill="#151515"/>
<path d="M16.2755 7V6H15.2755V7H16.2755ZM16.6324 7H17.6324V6H16.6324V7ZM16.6324 17.8252V18.8252H17.6324V17.8252H16.6324ZM16.2755 17.8252H15.2755V18.8252H16.2755V17.8252ZM16.2755 8H16.6324V6H16.2755V8ZM15.6324 7V17.8252H17.6324V7H15.6324ZM16.6324 16.8252H16.2755V18.8252H16.6324V16.8252ZM17.2755 17.8252V7H15.2755V17.8252H17.2755Z" fill="#151515" mask="url(#path-20-inside-9_46_678)"/>
<mask id="path-22-inside-10_46_678" fill="white">
<path fill-rule="evenodd" clip-rule="evenodd" d="M16.7897 7H17.0658V17.8252H16.7897V7Z"/>
</mask>
<path fill-rule="evenodd" clip-rule="evenodd" d="M16.7897 7H17.0658V17.8252H16.7897V7Z" fill="#151515"/>
<path d="M16.7897 7V6H15.7897V7H16.7897ZM17.0658 7H18.0658V6H17.0658V7ZM17.0658 17.8252V18.8252H18.0658V17.8252H17.0658ZM16.7897 17.8252H15.7897V18.8252H16.7897V17.8252ZM16.7897 8H17.0658V6H16.7897V8ZM16.0658 7V17.8252H18.0658V7H16.0658ZM17.0658 16.8252H16.7897V18.8252H17.0658V16.8252ZM17.7897 17.8252V7H15.7897V17.8252H17.7897Z" fill="#151515" mask="url(#path-22-inside-10_46_678)"/>
<mask id="path-24-inside-11_46_678" fill="white">
<path fill-rule="evenodd" clip-rule="evenodd" d="M11.9463 7H12.3032V17.8252H11.9463V7Z"/>
</mask>
<path fill-rule="evenodd" clip-rule="evenodd" d="M11.9463 7H12.3032V17.8252H11.9463V7Z" fill="#151515"/>
<path d="M11.9463 7V6H10.9463V7H11.9463ZM12.3032 7H13.3032V6H12.3032V7ZM12.3032 17.8252V18.8252H13.3032V17.8252H12.3032ZM11.9463 17.8252H10.9463V18.8252H11.9463V17.8252ZM11.9463 8H12.3032V6H11.9463V8ZM11.3032 7V17.8252H13.3032V7H11.3032ZM12.3032 16.8252H11.9463V18.8252H12.3032V16.8252ZM12.9463 17.8252V7H10.9463V17.8252H12.9463Z" fill="#151515" mask="url(#path-24-inside-11_46_678)"/>
<mask id="path-26-inside-12_46_678" fill="white">
<path fill-rule="evenodd" clip-rule="evenodd" d="M11.1561 7H11.7977V17.8252H11.1561V7Z"/>
</mask>
<path fill-rule="evenodd" clip-rule="evenodd" d="M11.1561 7H11.7977V17.8252H11.1561V7Z" fill="#151515"/>
<path d="M11.1561 7V6H10.1561V7H11.1561ZM11.7977 7H12.7977V6H11.7977V7ZM11.7977 17.8252V18.8252H12.7977V17.8252H11.7977ZM11.1561 17.8252H10.1561V18.8252H11.1561V17.8252ZM11.1561 8H11.7977V6H11.1561V8ZM10.7977 7V17.8252H12.7977V7H10.7977ZM11.7977 16.8252H11.1561V18.8252H11.7977V16.8252ZM12.1561 17.8252V7H10.1561V17.8252H12.1561Z" fill="#151515" mask="url(#path-26-inside-12_46_678)"/>
<mask id="path-28-inside-13_46_678" fill="white">
<path fill-rule="evenodd" clip-rule="evenodd" d="M17.5204 7H18.1598V17.8252H17.5204V7Z"/>
</mask>
<path fill-rule="evenodd" clip-rule="evenodd" d="M17.5204 7H18.1598V17.8252H17.5204V7Z" fill="#151515"/>
<path d="M17.5204 7V6H16.5204V7H17.5204ZM18.1598 7H19.1598V6H18.1598V7ZM18.1598 17.8252V18.8252H19.1598V17.8252H18.1598ZM17.5204 17.8252H16.5204V18.8252H17.5204V17.8252ZM17.5204 8H18.1598V6H17.5204V8ZM17.1598 7V17.8252H19.1598V7H17.1598ZM18.1598 16.8252H17.5204V18.8252H18.1598V16.8252ZM18.5204 17.8252V7H16.5204V17.8252H18.5204Z" fill="#151515" mask="url(#path-28-inside-13_46_678)"/>
<mask id="path-30-inside-14_46_678" fill="white">
<path fill-rule="evenodd" clip-rule="evenodd" d="M18.778 7H19.137V17.8252H18.778V7Z"/>
</mask>
<path fill-rule="evenodd" clip-rule="evenodd" d="M18.778 7H19.137V17.8252H18.778V7Z" fill="#151515"/>
<path d="M18.778 7V6H17.778V7H18.778ZM19.137 7H20.137V6H19.137V7ZM19.137 17.8252V18.8252H20.137V17.8252H19.137ZM18.778 17.8252H17.778V18.8252H18.778V17.8252ZM18.778 8H19.137V6H18.778V8ZM18.137 7V17.8252H20.137V7H18.137ZM19.137 16.8252H18.778V18.8252H19.137V16.8252ZM19.778 17.8252V7H17.778V17.8252H19.778Z" fill="#151515" mask="url(#path-30-inside-14_46_678)"/>
<mask id="path-32-inside-15_46_678" fill="white">
<path fill-rule="evenodd" clip-rule="evenodd" d="M19.2942 7H19.5682V17.8252H19.2942V7Z"/>
</mask>
<path fill-rule="evenodd" clip-rule="evenodd" d="M19.2942 7H19.5682V17.8252H19.2942V7Z" fill="#151515"/>
<path d="M19.2942 7V6H18.2942V7H19.2942ZM19.5682 7H20.5682V6H19.5682V7ZM19.5682 17.8252V18.8252H20.5682V17.8252H19.5682ZM19.2942 17.8252H18.2942V18.8252H19.2942V17.8252ZM19.2942 8H19.5682V6H19.2942V8ZM18.5682 7V17.8252H20.5682V7H18.5682ZM19.5682 16.8252H19.2942V18.8252H19.5682V16.8252ZM20.2942 17.8252V7H18.2942V17.8252H20.2942Z" fill="#151515" mask="url(#path-32-inside-15_46_678)"/>
<mask id="path-34-inside-16_46_678" fill="white">
<path fill-rule="evenodd" clip-rule="evenodd" d="M20.6049 7H20.9639V17.8252H20.6049V7Z"/>
</mask>
<path fill-rule="evenodd" clip-rule="evenodd" d="M20.6049 7H20.9639V17.8252H20.6049V7Z" fill="#151515"/>
<path d="M20.6049 7V6H19.6049V7H20.6049ZM20.9639 7H21.9639V6H20.9639V7ZM20.9639 17.8252V18.8252H21.9639V17.8252H20.9639ZM20.6049 17.8252H19.6049V18.8252H20.6049V17.8252ZM20.6049 8H20.9639V6H20.6049V8ZM19.9639 7V17.8252H21.9639V7H19.9639ZM20.9639 16.8252H20.6049V18.8252H20.9639V16.8252ZM21.6049 17.8252V7H19.6049V17.8252H21.6049Z" fill="#151515" mask="url(#path-34-inside-16_46_678)"/>
<mask id="path-36-inside-17_46_678" fill="white">
<path fill-rule="evenodd" clip-rule="evenodd" d="M19.8146 7H20.4561V17.8252H19.8146V7Z"/>
</mask>
<path fill-rule="evenodd" clip-rule="evenodd" d="M19.8146 7H20.4561V17.8252H19.8146V7Z" fill="#151515"/>
<path d="M19.8146 7V6H18.8146V7H19.8146ZM20.4561 7H21.4561V6H20.4561V7ZM20.4561 17.8252V18.8252H21.4561V17.8252H20.4561ZM19.8146 17.8252H18.8146V18.8252H19.8146V17.8252ZM19.8146 8H20.4561V6H19.8146V8ZM19.4561 7V17.8252H21.4561V7H19.4561ZM20.4561 16.8252H19.8146V18.8252H20.4561V16.8252ZM20.8146 17.8252V7H18.8146V17.8252H20.8146Z" fill="#151515" mask="url(#path-36-inside-17_46_678)"/>
<mask id="path-38-inside-18_46_678" fill="white">
<path fill-rule="evenodd" clip-rule="evenodd" d="M21.4397 7H21.7987V17.8252H21.4397V7Z"/>
</mask>
<path fill-rule="evenodd" clip-rule="evenodd" d="M21.4397 7H21.7987V17.8252H21.4397V7Z" fill="#151515"/>
<path d="M21.4397 7V6H20.4397V7H21.4397ZM21.7987 7H22.7987V6H21.7987V7ZM21.7987 17.8252V18.8252H22.7987V17.8252H21.7987ZM21.4397 17.8252H20.4397V18.8252H21.4397V17.8252ZM21.4397 8H21.7987V6H21.4397V8ZM20.7987 7V17.8252H22.7987V7H20.7987ZM21.7987 16.8252H21.4397V18.8252H21.7987V16.8252ZM22.4397 17.8252V7H20.4397V17.8252H22.4397Z" fill="#151515" mask="url(#path-38-inside-18_46_678)"/>
<mask id="path-40-inside-19_46_678" fill="white">
<path fill-rule="evenodd" clip-rule="evenodd" d="M21.9537 7H22.2299V17.8252H21.9537V7Z"/>
</mask>
<path fill-rule="evenodd" clip-rule="evenodd" d="M21.9537 7H22.2299V17.8252H21.9537V7Z" fill="#151515"/>
<path d="M21.9537 7V6H20.9537V7H21.9537ZM22.2299 7H23.2299V6H22.2299V7ZM22.2299 17.8252V18.8252H23.2299V17.8252H22.2299ZM21.9537 17.8252H20.9537V18.8252H21.9537V17.8252ZM21.9537 8H22.2299V6H21.9537V8ZM21.2299 7V17.8252H23.2299V7H21.2299ZM22.2299 16.8252H21.9537V18.8252H22.2299V16.8252ZM22.9537 17.8252V7H20.9537V17.8252H22.9537Z" fill="#151515" mask="url(#path-40-inside-19_46_678)"/>
<mask id="path-42-inside-20_46_678" fill="white">
<path fill-rule="evenodd" clip-rule="evenodd" d="M23.2644 7H23.6234V17.8252H23.2644V7Z"/>
</mask>
<path fill-rule="evenodd" clip-rule="evenodd" d="M23.2644 7H23.6234V17.8252H23.2644V7Z" fill="#151515"/>
<path d="M23.2644 7V6H22.2644V7H23.2644ZM23.6234 7H24.6234V6H23.6234V7ZM23.6234 17.8252V18.8252H24.6234V17.8252H23.6234ZM23.2644 17.8252H22.2644V18.8252H23.2644V17.8252ZM23.2644 8H23.6234V6H23.2644V8ZM22.6234 7V17.8252H24.6234V7H22.6234ZM23.6234 16.8252H23.2644V18.8252H23.6234V16.8252ZM24.2644 17.8252V7H22.2644V17.8252H24.2644Z" fill="#151515" mask="url(#path-42-inside-20_46_678)"/>
<mask id="path-44-inside-21_46_678" fill="white">
<path fill-rule="evenodd" clip-rule="evenodd" d="M22.4741 7H23.1156V17.8252H22.4741V7Z"/>
</mask>
<path fill-rule="evenodd" clip-rule="evenodd" d="M22.4741 7H23.1156V17.8252H22.4741V7Z" fill="#151515"/>
<path d="M22.4741 7V6H21.4741V7H22.4741ZM23.1156 7H24.1156V6H23.1156V7ZM23.1156 17.8252V18.8252H24.1156V17.8252H23.1156ZM22.4741 17.8252H21.4741V18.8252H22.4741V17.8252ZM22.4741 8H23.1156V6H22.4741V8ZM22.1156 7V17.8252H24.1156V7H22.1156ZM23.1156 16.8252H22.4741V18.8252H23.1156V16.8252ZM23.4741 17.8252V7H21.4741V17.8252H23.4741Z" fill="#151515" mask="url(#path-44-inside-21_46_678)"/>
<path d="M24.4357 7.5H24.5913V17.3252H24.4357V7.5Z" fill="#151515" stroke="#151515"/>
<mask id="path-47-inside-22_46_678" fill="white">
<path fill-rule="evenodd" clip-rule="evenodd" d="M25.4567 7H25.8135V17.8252H25.4567V7Z"/>
</mask>
<path fill-rule="evenodd" clip-rule="evenodd" d="M25.4567 7H25.8135V17.8252H25.4567V7Z" fill="#151515"/>
<path d="M25.4567 7V6H24.4567V7H25.4567ZM25.8135 7H26.8135V6H25.8135V7ZM25.8135 17.8252V18.8252H26.8135V17.8252H25.8135ZM25.4567 17.8252H24.4567V18.8252H25.4567V17.8252ZM25.4567 8H25.8135V6H25.4567V8ZM24.8135 7V17.8252H26.8135V7H24.8135ZM25.8135 16.8252H25.4567V18.8252H25.8135V16.8252ZM26.4567 17.8252V7H24.4567V17.8252H26.4567Z" fill="#151515" mask="url(#path-47-inside-22_46_678)"/>
<mask id="path-49-inside-23_46_678" fill="white">
<path fill-rule="evenodd" clip-rule="evenodd" d="M26.1257 7H26.7673V17.8252H26.1257V7Z"/>
</mask>
<path fill-rule="evenodd" clip-rule="evenodd" d="M26.1257 7H26.7673V17.8252H26.1257V7Z" fill="#151515"/>
<path d="M26.1257 7V6H25.1257V7H26.1257ZM26.7673 7H27.7673V6H26.7673V7ZM26.7673 17.8252V18.8252H27.7673V17.8252H26.7673ZM26.1257 17.8252H25.1257V18.8252H26.1257V17.8252ZM26.1257 8H26.7673V6H26.1257V8ZM25.7673 7V17.8252H27.7673V7H25.7673ZM26.7673 16.8252H26.1257V18.8252H26.7673V16.8252ZM27.1257 17.8252V7H25.1257V17.8252H27.1257Z" fill="#151515" mask="url(#path-49-inside-23_46_678)"/>
<mask id="path-51-inside-24_46_678" fill="white">
<path fill-rule="evenodd" clip-rule="evenodd" d="M27.3855 7H27.7445V17.8252H27.3855V7Z"/>
</mask>
<path fill-rule="evenodd" clip-rule="evenodd" d="M27.3855 7H27.7445V17.8252H27.3855V7Z" fill="#151515"/>
<path d="M27.3855 7V6H26.3855V7H27.3855ZM27.7445 7H28.7445V6H27.7445V7ZM27.7445 17.8252V18.8252H28.7445V17.8252H27.7445ZM27.3855 17.8252H26.3855V18.8252H27.3855V17.8252ZM27.3855 8H27.7445V6H27.3855V8ZM26.7445 7V17.8252H28.7445V7H26.7445ZM27.7445 16.8252H27.3855V18.8252H27.7445V16.8252ZM28.3855 17.8252V7H26.3855V17.8252H28.3855Z" fill="#151515" mask="url(#path-51-inside-24_46_678)"/>
<mask id="path-53-inside-25_46_678" fill="white">
<path fill-rule="evenodd" clip-rule="evenodd" d="M27.8995 7H28.1757V17.8252H27.8995V7Z"/>
</mask>
<path fill-rule="evenodd" clip-rule="evenodd" d="M27.8995 7H28.1757V17.8252H27.8995V7Z" fill="#151515"/>
<path d="M27.8995 7V6H26.8995V7H27.8995ZM28.1757 7H29.1757V6H28.1757V7ZM28.1757 17.8252V18.8252H29.1757V17.8252H28.1757ZM27.8995 17.8252H26.8995V18.8252H27.8995V17.8252ZM27.8995 8H28.1757V6H27.8995V8ZM27.1757 7V17.8252H29.1757V7H27.1757ZM28.1757 16.8252H27.8995V18.8252H28.1757V16.8252ZM28.8995 17.8252V7H26.8995V17.8252H28.8995Z" fill="#151515" mask="url(#path-53-inside-25_46_678)"/>
<mask id="path-55-inside-26_46_678" fill="white">
<path fill-rule="evenodd" clip-rule="evenodd" d="M28.6302 7H29.2718V17.8252H28.6302V7Z"/>
</mask>
<path fill-rule="evenodd" clip-rule="evenodd" d="M28.6302 7H29.2718V17.8252H28.6302V7Z" fill="#151515"/>
<path d="M28.6302 7V6H27.6302V7H28.6302ZM29.2718 7H30.2718V6H29.2718V7ZM29.2718 17.8252V18.8252H30.2718V17.8252H29.2718ZM28.6302 17.8252H27.6302V18.8252H28.6302V17.8252ZM28.6302 8H29.2718V6H28.6302V8ZM28.2718 7V17.8252H30.2718V7H28.2718ZM29.2718 16.8252H28.6302V18.8252H29.2718V16.8252ZM29.6302 17.8252V7H27.6302V17.8252H29.6302Z" fill="#151515" mask="url(#path-55-inside-26_46_678)"/>
<path fill-rule="evenodd" clip-rule="evenodd" d="M6.30859 17.8481H28.4667V11.7812H6.30859V17.8481Z" fill="white"/>
<path d="M9.65249 14.7861C9.59537 14.811 9.53655 14.8323 9.47661 14.8502L9.41169 14.633M9.65249 14.7861L9.33808 14.3865L9.33803 14.3865L9.41169 14.633M9.65249 14.7861L9.53946 15.1291M9.65249 14.7861L9.53946 15.1291M9.41169 14.633C9.41207 14.633 9.41246 14.6331 9.41284 14.6332L9.47845 14.8497C9.31363 14.8996 9.1039 14.9229 8.86824 14.9312M9.41169 14.633C9.26483 14.6071 9.10425 14.5927 8.93469 14.5865L8.72166 14.6921L8.64093 14.7322L8.47399 14.8149L8.64093 14.8642L8.72166 14.888L8.86824 14.9312M8.86824 14.9312C8.82039 14.9329 8.77148 14.9339 8.72166 14.9345C8.695 14.9347 8.66809 14.9349 8.64093 14.9349H7.45347H7.45135H7.22485L9.52463 15.1741L9.53946 15.1291M8.86824 14.9312L9.53946 15.1291M9.53961 15.1292L9.65421 14.7854L9.53961 15.1292Z" fill="#151515" stroke="#151515"/>
<mask id="path-59-inside-27_46_678" fill="white">
<path d="M11.5321 15.627C11.5321 14.892 11.736 14.3482 12.146 13.9934C12.488 13.7003 12.9044 13.5537 13.3972 13.5537C13.9431 13.5537 14.3892 13.7321 14.7376 14.0911C15.0839 14.448 15.2581 14.943 15.2581 15.5718C15.2581 16.0837 15.1816 16.4831 15.0286 16.7762C14.8757 17.0694 14.6526 17.2967 14.3574 17.4581C14.0642 17.6195 13.7435 17.7003 13.3972 17.7003C12.8406 17.7003 12.3903 17.5218 12.0462 17.1671C11.7042 16.8102 11.5321 16.2961 11.5321 15.627ZM12.2225 15.6291C12.2225 16.1368 12.333 16.5192 12.556 16.7698C12.779 17.0226 13.0594 17.1501 13.3972 17.1501C13.7328 17.1501 14.0111 17.0226 14.2342 16.7698C14.4572 16.5149 14.5677 16.1283 14.5677 15.6079C14.5677 15.1172 14.4551 14.7454 14.232 14.4948C14.009 14.242 13.7307 14.1145 13.3972 14.1145C13.0594 14.1145 12.779 14.2398 12.556 14.4905C12.333 14.7412 12.2225 15.1214 12.2225 15.6291Z"/>
</mask>
<path d="M11.5321 15.627C11.5321 14.892 11.736 14.3482 12.146 13.9934C12.488 13.7003 12.9044 13.5537 13.3972 13.5537C13.9431 13.5537 14.3892 13.7321 14.7376 14.0911C15.0839 14.448 15.2581 14.943 15.2581 15.5718C15.2581 16.0837 15.1816 16.4831 15.0286 16.7762C14.8757 17.0694 14.6526 17.2967 14.3574 17.4581C14.0642 17.6195 13.7435 17.7003 13.3972 17.7003C12.8406 17.7003 12.3903 17.5218 12.0462 17.1671C11.7042 16.8102 11.5321 16.2961 11.5321 15.627ZM12.2225 15.6291C12.2225 16.1368 12.333 16.5192 12.556 16.7698C12.779 17.0226 13.0594 17.1501 13.3972 17.1501C13.7328 17.1501 14.0111 17.0226 14.2342 16.7698C14.4572 16.5149 14.5677 16.1283 14.5677 15.6079C14.5677 15.1172 14.4551 14.7454 14.232 14.4948C14.009 14.242 13.7307 14.1145 13.3972 14.1145C13.0594 14.1145 12.779 14.2398 12.556 14.4905C12.333 14.7412 12.2225 15.1214 12.2225 15.6291Z" fill="#151515"/>
<path d="M12.146 13.9934L11.4952 13.2342L11.4917 13.2372L12.146 13.9934ZM14.7376 14.0911L15.4553 13.3948L15.4553 13.3947L14.7376 14.0911ZM14.3574 17.4581L13.8776 16.5807L13.875 16.5822L14.3574 17.4581ZM12.0462 17.1671L11.3242 17.859L11.3284 17.8634L12.0462 17.1671ZM12.556 16.7698L13.3058 16.1082L13.3031 16.1051L12.556 16.7698ZM14.2342 16.7698L14.984 17.4315L14.9867 17.4283L14.2342 16.7698ZM14.232 14.4948L13.4822 15.1564L13.485 15.1595L14.232 14.4948ZM12.5321 15.627C12.5321 15.0728 12.681 14.8529 12.8003 14.7496L11.4917 13.2372C10.7911 13.8434 10.5321 14.7112 10.5321 15.627H12.5321ZM12.7968 14.7527C12.9404 14.6296 13.1195 14.5537 13.3972 14.5537V12.5537C12.6892 12.5537 12.0356 12.771 11.4952 13.2342L12.7968 14.7527ZM13.3972 14.5537C13.701 14.5537 13.8787 14.642 14.02 14.7876L15.4553 13.3947C14.8997 12.8223 14.1853 12.5537 13.3972 12.5537V14.5537ZM14.0199 14.7875C14.1407 14.912 14.2581 15.1314 14.2581 15.5718H16.2581C16.2581 14.7546 16.027 13.984 15.4553 13.3948L14.0199 14.7875ZM14.2581 15.5718C14.2581 16.0015 14.191 16.2198 14.142 16.3136L15.9152 17.2388C16.1722 16.7463 16.2581 16.1659 16.2581 15.5718H14.2581ZM14.142 16.3136C14.0816 16.4295 14.001 16.5132 13.8776 16.5807L14.8371 18.3355C15.3042 18.0801 15.6697 17.7093 15.9152 17.2388L14.142 16.3136ZM13.875 16.5822C13.7353 16.6591 13.5814 16.7003 13.3972 16.7003V18.7003C13.9055 18.7003 14.3932 18.58 14.8398 18.334L13.875 16.5822ZM13.3972 16.7003C13.0753 16.7003 12.8962 16.6071 12.7639 16.4708L11.3284 17.8634C11.8844 18.4366 12.606 18.7003 13.3972 18.7003V16.7003ZM12.7682 16.4752C12.6595 16.3618 12.5321 16.1304 12.5321 15.627H10.5321C10.5321 16.4619 10.7489 17.2586 11.3242 17.859L12.7682 16.4752ZM11.2225 15.6291C11.2225 16.256 11.3552 16.9247 11.8089 17.4346L13.3031 16.1051C13.3107 16.1137 13.2225 16.0176 13.2225 15.6291H11.2225ZM11.8062 17.4315C12.2179 17.8981 12.7709 18.1501 13.3972 18.1501V16.1501C13.3759 16.1501 13.3628 16.1481 13.3562 16.1467C13.3498 16.1454 13.347 16.1442 13.346 16.1437C13.3449 16.1433 13.342 16.1419 13.3365 16.1377C13.3307 16.1334 13.3203 16.1246 13.3058 16.1082L11.8062 17.4315ZM13.3972 18.1501C14.0245 18.1501 14.5743 17.8958 14.984 17.4315L13.4843 16.1082C13.4694 16.1252 13.4585 16.1343 13.4526 16.1388C13.447 16.1431 13.4442 16.1444 13.4436 16.1446C13.443 16.1449 13.4409 16.1459 13.4354 16.147C13.4297 16.1482 13.4176 16.1501 13.3972 16.1501V18.1501ZM14.9867 17.4283C15.4364 16.9144 15.5677 16.2442 15.5677 15.6079H13.5677C13.5677 15.8009 13.5468 15.9309 13.5233 16.0128C13.5119 16.0526 13.5008 16.0779 13.4932 16.0925C13.4894 16.0998 13.4864 16.1046 13.4845 16.1074C13.4826 16.1101 13.4816 16.1113 13.4816 16.1113L14.9867 17.4283ZM15.5677 15.6079C15.5677 14.9817 15.4256 14.3318 14.9791 13.83L13.485 15.1595C13.4862 15.1608 13.5057 15.1824 13.5262 15.2503C13.5476 15.3215 13.5677 15.4361 13.5677 15.6079H15.5677ZM14.9819 13.8331C14.5729 13.3696 14.0235 13.1145 13.3972 13.1145V15.1145C13.4166 15.1145 13.4281 15.1163 13.4334 15.1174C13.4385 15.1185 13.4405 15.1194 13.4411 15.1197C13.4417 15.1199 13.4446 15.1213 13.4504 15.1257C13.4563 15.1302 13.4672 15.1394 13.4822 15.1564L14.9819 13.8331ZM13.3972 13.1145C12.7762 13.1145 12.2232 13.3602 11.8089 13.8258L13.3031 15.1553C13.317 15.1396 13.327 15.1312 13.3324 15.1272C13.3376 15.1234 13.3404 15.122 13.3416 15.1215C13.3429 15.1209 13.3462 15.1195 13.3533 15.1181C13.3608 15.1166 13.3748 15.1145 13.3972 15.1145V13.1145ZM11.8089 13.8258C11.3557 14.3351 11.2225 15.0009 11.2225 15.6291H13.2225C13.2225 15.2419 13.3102 15.1473 13.3031 15.1553L11.8089 13.8258Z" fill="#151515" mask="url(#path-59-inside-27_46_678)"/>
<mask id="path-61-inside-28_46_678" fill="white">
<path d="M16.0334 17.617V12.1279H16.709V17.617H16.0334Z"/>
</mask>
<path d="M16.0334 17.617V12.1279H16.709V17.617H16.0334Z" fill="#151515"/>
<path d="M16.0334 17.617H15.0334V18.617H16.0334V17.617ZM16.0334 12.1279V11.1279H15.0334V12.1279H16.0334ZM16.709 12.1279H17.709V11.1279H16.709V12.1279ZM16.709 17.617V18.617H17.709V17.617H16.709ZM17.0334 17.617V12.1279H15.0334V17.617H17.0334ZM16.0334 13.1279H16.709V11.1279H16.0334V13.1279ZM15.709 12.1279V17.617H17.709V12.1279H15.709ZM16.709 16.617H16.0334V18.617H16.709V16.617Z" fill="#151515" mask="url(#path-61-inside-28_46_678)"/>
<mask id="path-63-inside-29_46_678" fill="white">
<path d="M20.4667 16.328L21.1634 16.4193C21.0551 16.8251 20.8512 17.1395 20.5559 17.3646C20.2585 17.5877 19.8804 17.7003 19.4194 17.7003C18.8395 17.7003 18.3785 17.5218 18.0386 17.1628C17.6987 16.806 17.5288 16.3046 17.5288 15.6589C17.5288 14.9918 17.7009 14.4735 18.0429 14.106C18.387 13.7364 18.8331 13.5537 19.3812 13.5537C19.9122 13.5537 20.3456 13.7343 20.6812 14.0954C21.0168 14.4565 21.1868 14.9663 21.1868 15.6206C21.1868 15.661 21.1847 15.7205 21.1825 15.7991H18.2192C18.2447 16.2345 18.3679 16.5702 18.5888 16.8017C18.8097 17.0332 19.088 17.1501 19.4173 17.1501C19.6637 17.1501 19.874 17.0842 20.0482 16.9546C20.2266 16.8229 20.3647 16.6148 20.4667 16.328ZM18.2574 15.2489H20.473C20.4433 14.9132 20.3583 14.6647 20.2181 14.4969C20.0057 14.2377 19.7253 14.1081 19.3854 14.1081C19.0753 14.1081 18.8161 14.2122 18.6058 14.4183C18.3976 14.6222 18.2808 14.9005 18.2574 15.2489Z"/>
</mask>
<path d="M20.4667 16.328L21.1634 16.4193C21.0551 16.8251 20.8512 17.1395 20.5559 17.3646C20.2585 17.5877 19.8804 17.7003 19.4194 17.7003C18.8395 17.7003 18.3785 17.5218 18.0386 17.1628C17.6987 16.806 17.5288 16.3046 17.5288 15.6589C17.5288 14.9918 17.7009 14.4735 18.0429 14.106C18.387 13.7364 18.8331 13.5537 19.3812 13.5537C19.9122 13.5537 20.3456 13.7343 20.6812 14.0954C21.0168 14.4565 21.1868 14.9663 21.1868 15.6206C21.1868 15.661 21.1847 15.7205 21.1825 15.7991H18.2192C18.2447 16.2345 18.3679 16.5702 18.5888 16.8017C18.8097 17.0332 19.088 17.1501 19.4173 17.1501C19.6637 17.1501 19.874 17.0842 20.0482 16.9546C20.2266 16.8229 20.3647 16.6148 20.4667 16.328ZM18.2574 15.2489H20.473C20.4433 14.9132 20.3583 14.6647 20.2181 14.4969C20.0057 14.2377 19.7253 14.1081 19.3854 14.1081C19.0753 14.1081 18.8161 14.2122 18.6058 14.4183C18.3976 14.6222 18.2808 14.9005 18.2574 15.2489Z" fill="#151515"/>
<path d="M20.4667 16.328L20.5966 15.3365L19.7952 15.2314L19.5244 15.993L20.4667 16.328ZM21.1634 16.4193L22.1296 16.6773L22.4236 15.576L21.2934 15.4278L21.1634 16.4193ZM20.5559 17.3646L21.1559 18.1647L21.1623 18.1598L20.5559 17.3646ZM18.0386 17.1628L18.7648 16.4753L18.7628 16.4732L18.0386 17.1628ZM18.0429 14.106L17.311 13.4246L17.3108 13.4248L18.0429 14.106ZM21.1825 15.7991V16.7991H22.1559L22.1822 15.8261L21.1825 15.7991ZM18.2192 15.7991V14.7991H17.1589L17.2209 15.8575L18.2192 15.7991ZM20.0482 16.9546L19.4543 16.1501L19.4513 16.1523L20.0482 16.9546ZM18.2574 15.2489L17.2597 15.1819L17.1881 16.2489H18.2574V15.2489ZM20.473 15.2489V16.2489H21.5656L21.4691 15.1606L20.473 15.2489ZM20.2181 14.4969L19.4447 15.1308L19.4507 15.138L20.2181 14.4969ZM18.6058 14.4183L19.3056 15.1326L19.3057 15.1326L18.6058 14.4183ZM20.3367 17.3195L21.0334 17.4109L21.2934 15.4278L20.5966 15.3365L20.3367 17.3195ZM20.1973 16.1614C20.1394 16.378 20.0492 16.4934 19.9495 16.5695L21.1623 18.1598C21.6531 17.7855 21.9707 17.2721 22.1296 16.6773L20.1973 16.1614ZM19.9559 16.5646C19.8679 16.6306 19.7143 16.7003 19.4194 16.7003V18.7003C20.0465 18.7003 20.6491 18.5447 21.1559 18.1646L19.9559 16.5646ZM19.4194 16.7003C19.0603 16.7003 18.8817 16.5988 18.7648 16.4753L17.3125 17.8503C17.8753 18.4448 18.6186 18.7003 19.4194 18.7003V16.7003ZM18.7628 16.4732C18.6495 16.3543 18.5288 16.1301 18.5288 15.6589H16.5288C16.5288 16.4792 16.748 17.2576 17.3145 17.8525L18.7628 16.4732ZM18.5288 15.6589C18.5288 15.1606 18.6549 14.9162 18.7749 14.7873L17.3108 13.4248C16.7468 14.0308 16.5288 14.823 16.5288 15.6589H18.5288ZM18.7748 14.7874C18.9105 14.6416 19.0812 14.5537 19.3812 14.5537V12.5537C18.585 12.5537 17.8635 12.8312 17.311 13.4246L18.7748 14.7874ZM19.3812 14.5537C19.6583 14.5537 19.818 14.6356 19.9487 14.7762L21.4137 13.4146C20.8731 12.833 20.1662 12.5537 19.3812 12.5537V14.5537ZM19.9487 14.7762C20.0635 14.8996 20.1868 15.1364 20.1868 15.6206H22.1868C22.1868 14.7963 21.9702 14.0134 21.4137 13.4146L19.9487 14.7762ZM20.1868 15.6206C20.1868 15.643 20.1855 15.6761 20.1829 15.772L22.1822 15.8261C22.1838 15.7648 22.1868 15.679 22.1868 15.6206H20.1868ZM21.1825 14.7991H18.2192V16.7991H21.1825V14.7991ZM17.2209 15.8575C17.2551 16.4419 17.429 17.0348 17.8653 17.492L19.3123 16.1114C19.3068 16.1056 19.2343 16.0272 19.2175 15.7406L17.2209 15.8575ZM17.8653 17.492C18.2814 17.9281 18.8242 18.1501 19.4173 18.1501V16.1501C19.373 16.1501 19.3544 16.1427 19.3499 16.1409C19.3461 16.1392 19.3339 16.134 19.3123 16.1114L17.8653 17.492ZM19.4173 18.1501C19.8518 18.1501 20.2779 18.0301 20.645 17.757L19.4513 16.1523C19.4528 16.1512 19.4552 16.1497 19.4581 16.1482C19.4595 16.1474 19.4607 16.1469 19.4617 16.1465C19.4627 16.1461 19.4632 16.146 19.4632 16.146C19.4632 16.146 19.4624 16.1462 19.4608 16.1466C19.4593 16.1469 19.4567 16.1474 19.4532 16.1479C19.446 16.1489 19.4343 16.1501 19.4173 16.1501V18.1501ZM20.642 17.7592C21.0325 17.471 21.2656 17.066 21.4089 16.663L19.5244 15.993C19.4638 16.1635 19.4207 16.1749 19.4543 16.1501L20.642 17.7592ZM18.2574 16.2489H20.473V14.2489H18.2574V16.2489ZM21.4691 15.1606C21.4302 14.721 21.3086 14.2424 20.9855 13.8557L19.4507 15.138C19.4279 15.1107 19.4296 15.1007 19.4401 15.1316C19.4512 15.164 19.4673 15.2286 19.4769 15.3371L21.4691 15.1606ZM20.9915 13.863C20.5833 13.3649 20.0156 13.1081 19.3854 13.1081V15.1081C19.4067 15.1081 19.419 15.1101 19.4242 15.1112C19.4291 15.1123 19.4295 15.1128 19.4274 15.1119C19.4253 15.1109 19.4246 15.1101 19.426 15.1113C19.4277 15.1126 19.4343 15.1181 19.4447 15.1308L20.9915 13.863ZM19.3854 13.1081C18.8254 13.1081 18.3115 13.3067 17.906 13.704L19.3057 15.1326C19.3148 15.1237 19.3207 15.1194 19.3234 15.1176C19.3259 15.116 19.3274 15.1153 19.3286 15.1148C19.329 15.1146 19.3441 15.1081 19.3854 15.1081V13.1081ZM17.906 13.7039C17.4892 14.1123 17.2961 14.6392 17.2597 15.1819L19.2552 15.3158C19.2606 15.2346 19.2751 15.1885 19.2844 15.1663C19.2928 15.1464 19.2999 15.1383 19.3056 15.1326L17.906 13.7039Z" fill="#151515" mask="url(#path-63-inside-29_46_678)"/>
<mask id="path-65-inside-30_46_678" fill="white">
<path d="M23.481 17.0137L23.5724 17.6085C23.3833 17.6489 23.2134 17.668 23.0647 17.668C22.8204 17.668 22.6313 17.6298 22.4954 17.5512C22.3616 17.4726 22.266 17.3727 22.2107 17.2453C22.1555 17.1178 22.13 16.8523 22.13 16.4487V14.1587H21.6329V13.6383H22.1321V12.6548L22.8076 12.249V13.6383H23.481V14.1587H22.8055V16.489C22.8055 16.6824 22.8161 16.8056 22.8416 16.8608C22.865 16.916 22.9032 16.9585 22.9563 16.9925C23.0095 17.0244 23.0859 17.0414 23.1858 17.0414C23.2601 17.0414 23.36 17.0329 23.481 17.0137Z"/>
</mask>
<path d="M23.481 17.0137L23.5724 17.6085C23.3833 17.6489 23.2134 17.668 23.0647 17.668C22.8204 17.668 22.6313 17.6298 22.4954 17.5512C22.3616 17.4726 22.266 17.3727 22.2107 17.2453C22.1555 17.1178 22.13 16.8523 22.13 16.4487V14.1587H21.6329V13.6383H22.1321V12.6548L22.8076 12.249V13.6383H23.481V14.1587H22.8055V16.489C22.8055 16.6824 22.8161 16.8056 22.8416 16.8608C22.865 16.916 22.9032 16.9585 22.9563 16.9925C23.0095 17.0244 23.0859 17.0414 23.1858 17.0414C23.2601 17.0414 23.36 17.0329 23.481 17.0137Z" fill="#151515"/>
<path d="M23.481 17.0137L24.4695 16.8619L24.317 15.8694L23.3251 16.026L23.481 17.0137ZM23.5724 17.6085L23.7812 18.5865L24.704 18.3895L24.5608 17.4567L23.5724 17.6085ZM22.4954 17.5512L21.9889 18.4135L21.9949 18.4169L22.4954 17.5512ZM22.13 14.1587H23.13V13.1587H22.13V14.1587ZM21.6329 14.1587H20.6329V15.1587H21.6329V14.1587ZM21.6329 13.6383V12.6383H20.6329V13.6383H21.6329ZM22.1321 13.6383V14.6383H23.1321V13.6383H22.1321ZM22.1321 12.6548L21.6172 11.7975L21.1321 12.0889V12.6548H22.1321ZM22.8076 12.249H23.8076V10.4819L22.2928 11.3918L22.8076 12.249ZM22.8076 13.6383H21.8076V14.6383H22.8076V13.6383ZM23.481 13.6383H24.481V12.6383H23.481V13.6383ZM23.481 14.1587V15.1587H24.481V14.1587H23.481ZM22.8055 14.1587V13.1587H21.8055V14.1587H22.8055ZM22.8416 16.8608L23.7626 16.4711L23.7563 16.4563L23.7496 16.4417L22.8416 16.8608ZM22.9563 16.9925L22.4173 17.8348L22.4295 17.8426L22.4419 17.85L22.9563 16.9925ZM23.1858 17.0414V16.0414V17.0414ZM22.4926 17.1655L22.584 17.7603L24.5608 17.4567L24.4695 16.8619L22.4926 17.1655ZM23.3636 16.6306C23.229 16.6593 23.1301 16.668 23.0647 16.668V18.668C23.2967 18.668 23.5377 18.6385 23.7812 18.5865L23.3636 16.6306ZM23.0647 16.668C22.9924 16.668 22.9535 16.6621 22.9397 16.6593C22.9263 16.6566 22.9514 16.6597 22.9959 16.6854L21.9949 18.4169C22.347 18.6205 22.7374 18.668 23.0647 18.668V16.668ZM23.0018 16.6889C23.0046 16.6905 23.0258 16.7035 23.0532 16.7327C23.082 16.7634 23.1089 16.8028 23.1283 16.8477L21.2932 17.6429C21.448 18.0001 21.7084 18.2487 21.989 18.4135L23.0018 16.6889ZM23.1283 16.8477C23.1509 16.8999 23.1561 16.9308 23.1541 16.9213C23.1529 16.9155 23.149 16.8938 23.1447 16.851C23.136 16.7643 23.13 16.6335 23.13 16.4487H21.13C21.13 16.6675 21.1367 16.8712 21.1546 17.05C21.1703 17.207 21.2018 17.4321 21.2932 17.6429L23.1283 16.8477ZM23.13 16.4487V14.1587H21.13V16.4487H23.13ZM22.13 13.1587H21.6329V15.1587H22.13V13.1587ZM22.6329 14.1587V13.6383H20.6329V14.1587H22.6329ZM21.6329 14.6383H22.1321V12.6383H21.6329V14.6383ZM23.1321 13.6383V12.6548H21.1321V13.6383H23.1321ZM22.647 13.512L23.3225 13.1063L22.2928 11.3918L21.6172 11.7975L22.647 13.512ZM21.8076 12.249V13.6383H23.8076V12.249H21.8076ZM22.8076 14.6383H23.481V12.6383H22.8076V14.6383ZM22.481 13.6383V14.1587H24.481V13.6383H22.481ZM23.481 13.1587H22.8055V15.1587H23.481V13.1587ZM21.8055 14.1587V16.489H23.8055V14.1587H21.8055ZM21.8055 16.489C21.8055 16.5992 21.8084 16.7138 21.8184 16.8207C21.8258 16.8983 21.8452 17.0881 21.9337 17.2798L23.7496 16.4417C23.7699 16.4857 23.7825 16.5226 23.79 16.5476C23.7977 16.5731 23.8023 16.5932 23.8049 16.6057C23.8097 16.6293 23.8103 16.6405 23.8096 16.6327C23.809 16.6263 23.8079 16.6114 23.807 16.5857C23.8061 16.5605 23.8055 16.5286 23.8055 16.489H21.8055ZM21.9207 17.2504C22.0331 17.5161 22.218 17.7072 22.4173 17.8348L23.4954 16.1502C23.5369 16.1768 23.5885 16.217 23.6393 16.2748C23.6911 16.3338 23.7328 16.4006 23.7626 16.4711L21.9207 17.2504ZM22.4419 17.85C22.7121 18.0121 22.9936 18.0414 23.1858 18.0414V16.0414C23.1905 16.0414 23.2189 16.0416 23.264 16.0513C23.3087 16.0609 23.3842 16.083 23.4708 16.135L22.4419 17.85ZM23.1858 18.0414C23.3281 18.0414 23.4827 18.0259 23.637 18.0015L23.3251 16.026C23.2834 16.0326 23.25 16.0366 23.2249 16.0389C23.2124 16.04 23.2028 16.0406 23.1958 16.041C23.1888 16.0414 23.1856 16.0414 23.1858 16.0414V18.0414Z" fill="#151515" mask="url(#path-65-inside-30_46_678)"/>
<mask id="path-67-inside-31_46_678" fill="white">
<path d="M23.8931 15.627C23.8931 14.892 24.097 14.3482 24.507 13.9934C24.849 13.7003 25.2653 13.5537 25.7582 13.5537C26.3041 13.5537 26.7502 13.7321 27.0986 14.0911C27.4448 14.448 27.619 14.943 27.619 15.5718C27.619 16.0837 27.5425 16.4831 27.3896 16.7762C27.2366 17.0694 27.0136 17.2967 26.7183 17.4581C26.4252 17.6195 26.1044 17.7003 25.7582 17.7003C25.2016 17.7003 24.7513 17.5218 24.4071 17.1671C24.0651 16.8102 23.8931 16.2961 23.8931 15.627ZM24.5835 15.6291C24.5835 16.1368 24.6939 16.5192 24.917 16.7698C25.14 17.0226 25.4204 17.1501 25.7582 17.1501C26.0938 17.1501 26.3721 17.0226 26.5951 16.7698C26.8182 16.5149 26.9286 16.1283 26.9286 15.6079C26.9286 15.1172 26.816 14.7454 26.593 14.4948C26.37 14.242 26.0917 14.1145 25.7582 14.1145C25.4204 14.1145 25.14 14.2398 24.917 14.4905C24.6939 14.7412 24.5835 15.1214 24.5835 15.6291Z"/>
</mask>
<path d="M23.8931 15.627C23.8931 14.892 24.097 14.3482 24.507 13.9934C24.849 13.7003 25.2653 13.5537 25.7582 13.5537C26.3041 13.5537 26.7502 13.7321 27.0986 14.0911C27.4448 14.448 27.619 14.943 27.619 15.5718C27.619 16.0837 27.5425 16.4831 27.3896 16.7762C27.2366 17.0694 27.0136 17.2967 26.7183 17.4581C26.4252 17.6195 26.1044 17.7003 25.7582 17.7003C25.2016 17.7003 24.7513 17.5218 24.4071 17.1671C24.0651 16.8102 23.8931 16.2961 23.8931 15.627ZM24.5835 15.6291C24.5835 16.1368 24.6939 16.5192 24.917 16.7698C25.14 17.0226 25.4204 17.1501 25.7582 17.1501C26.0938 17.1501 26.3721 17.0226 26.5951 16.7698C26.8182 16.5149 26.9286 16.1283 26.9286 15.6079C26.9286 15.1172 26.816 14.7454 26.593 14.4948C26.37 14.242 26.0917 14.1145 25.7582 14.1145C25.4204 14.1145 25.14 14.2398 24.917 14.4905C24.6939 14.7412 24.5835 15.1214 24.5835 15.6291Z" fill="#151515"/>
<path d="M24.507 13.9934L23.8562 13.2342L23.8526 13.2372L24.507 13.9934ZM27.0986 14.0911L27.8163 13.3948L27.8162 13.3947L27.0986 14.0911ZM26.7183 17.4581L26.2386 16.5807L26.2359 16.5822L26.7183 17.4581ZM24.4071 17.1671L23.6851 17.859L23.6894 17.8634L24.4071 17.1671ZM24.917 16.7698L25.6668 16.1082L25.664 16.1051L24.917 16.7698ZM26.5951 16.7698L27.345 17.4315L27.3477 17.4283L26.5951 16.7698ZM26.593 14.4948L25.8432 15.1564L25.8459 15.1595L26.593 14.4948ZM24.8931 15.627C24.8931 15.0728 25.0419 14.8529 25.1613 14.7496L23.8526 13.2372C23.1521 13.8434 22.8931 14.7112 22.8931 15.627H24.8931ZM25.1578 14.7527C25.3014 14.6296 25.4805 14.5537 25.7582 14.5537V12.5537C25.0502 12.5537 24.3966 12.771 23.8562 13.2342L25.1578 14.7527ZM25.7582 14.5537C26.0619 14.5537 26.2397 14.642 26.3809 14.7876L27.8162 13.3947C27.2607 12.8223 26.5463 12.5537 25.7582 12.5537V14.5537ZM26.3809 14.7875C26.5017 14.912 26.619 15.1314 26.619 15.5718H28.619C28.619 14.7546 28.3879 13.984 27.8163 13.3948L26.3809 14.7875ZM26.619 15.5718C26.619 16.0015 26.552 16.2198 26.503 16.3136L28.2762 17.2388C28.5331 16.7463 28.619 16.1659 28.619 15.5718H26.619ZM26.503 16.3136C26.4426 16.4295 26.362 16.5132 26.2386 16.5807L27.1981 18.3355C27.6652 18.0801 28.0307 17.7093 28.2762 17.2388L26.503 16.3136ZM26.2359 16.5822C26.0962 16.6591 25.9424 16.7003 25.7582 16.7003V18.7003C26.2665 18.7003 26.7541 18.58 27.2007 18.334L26.2359 16.5822ZM25.7582 16.7003C25.4363 16.7003 25.2571 16.6071 25.1249 16.4708L23.6894 17.8634C24.2454 18.4366 24.967 18.7003 25.7582 18.7003V16.7003ZM25.1291 16.4752C25.0204 16.3618 24.8931 16.1304 24.8931 15.627H22.8931C22.8931 16.4619 23.1098 17.2586 23.6851 17.859L25.1291 16.4752ZM23.5835 15.6291C23.5835 16.256 23.7161 16.9247 24.1699 17.4346L25.664 16.1051C25.6717 16.1137 25.5835 16.0176 25.5835 15.6291H23.5835ZM24.1671 17.4315C24.5789 17.8981 25.1318 18.1501 25.7582 18.1501V16.1501C25.7369 16.1501 25.7238 16.1481 25.7171 16.1467C25.7108 16.1454 25.7079 16.1442 25.7069 16.1437C25.7059 16.1433 25.7029 16.1419 25.6974 16.1377C25.6917 16.1334 25.6812 16.1246 25.6668 16.1082L24.1671 17.4315ZM25.7582 18.1501C26.3855 18.1501 26.9353 17.8958 27.345 17.4315L25.8453 16.1082C25.8303 16.1252 25.8195 16.1343 25.8136 16.1388C25.808 16.1431 25.8051 16.1444 25.8045 16.1446C25.804 16.1449 25.8018 16.1459 25.7964 16.147C25.7907 16.1482 25.7785 16.1501 25.7582 16.1501V18.1501ZM27.3477 17.4283C27.7974 16.9144 27.9286 16.2442 27.9286 15.6079H25.9286C25.9286 15.8009 25.9077 15.9309 25.8842 16.0128C25.8729 16.0526 25.8617 16.0779 25.8541 16.0925C25.8504 16.0998 25.8474 16.1046 25.8455 16.1074C25.8436 16.1101 25.8426 16.1113 25.8425 16.1113L27.3477 17.4283ZM27.9286 15.6079C27.9286 14.9817 27.7866 14.3318 27.3401 13.83L25.8459 15.1595C25.8471 15.1608 25.8666 15.1824 25.8871 15.2503C25.9086 15.3215 25.9286 15.4361 25.9286 15.6079H27.9286ZM27.3428 13.8331C26.9339 13.3696 26.3844 13.1145 25.7582 13.1145V15.1145C25.7776 15.1145 25.7891 15.1163 25.7944 15.1174C25.7995 15.1185 25.8015 15.1194 25.802 15.1197C25.8026 15.1199 25.8056 15.1213 25.8113 15.1257C25.8173 15.1302 25.8282 15.1394 25.8432 15.1564L27.3428 13.8331ZM25.7582 13.1145C25.1371 13.1145 24.5841 13.3602 24.1699 13.8258L25.664 15.1553C25.678 15.1396 25.688 15.1312 25.6934 15.1272C25.6985 15.1234 25.7014 15.122 25.7026 15.1215C25.7038 15.1209 25.7071 15.1195 25.7143 15.1181C25.7217 15.1166 25.7358 15.1145 25.7582 15.1145V13.1145ZM24.1699 13.8258C23.7167 14.3351 23.5835 15.0009 23.5835 15.6291H25.5835C25.5835 15.2419 25.6711 15.1473 25.664 15.1553L24.1699 13.8258Z" fill="#151515" mask="url(#path-67-inside-31_46_678)"/>
</svg>
